<?xml version="1.0" encoding="utf-8"?>
<!-- Generator: Adobe Illustrator 18.0.0, SVG Export Plug-In . SVG Version: 6.00 Build 0)  -->
<!DOCTYPE svg PUBLIC "-//W3C//DTD SVG 1.1//EN" "http://www.w3.org/Graphics/SVG/1.1/DTD/svg11.dtd">
<svg version="1.1" id="Layer_1" xmlns="http://www.w3.org/2000/svg" xmlns:xlink="http://www.w3.org/1999/xlink" x="0px" y="0px"
	 viewBox="0 0 612 792" enable-background="new 0 0 612 792" xml:space="preserve">
<g transform="translate(18, 18) ">
	<polygon fill="none" stroke="#FF0000" stroke-width="9.000000e-02" points="-5,117.6 36.5,117.6 36.5,125.6 78,125.6 78,117.6 
		107.3,117.6 107.3,125.6 148.8,125.6 148.8,117.6 190.3,117.6 190.3,160.7 182.3,160.7 182.3,203.8 190.3,203.8 190.3,233.1 
		182.3,233.1 182.3,262.4 190.3,262.4 190.3,291.7 182.3,291.7 182.3,334.9 190.3,334.9 190.3,378 148.8,378 148.8,370 107.3,370 
		107.3,378 78,378 78,370 36.5,370 36.5,378 -5,378 -5,334.9 3.1,334.9 3.1,291.7 -5,291.7 -5,262.4 3.1,262.4 3.1,233.1 -5,233.1 
		-5,203.8 3.1,203.8 3.1,160.7 -5,160.7 	"/>
</g>
<g transform="translate(288, 18) ">
	<polygon fill="none" stroke="#FF0000" stroke-width="9.000000e-02" points="-79.7,117.6 -38.2,117.6 -38.2,125.6 3.4,125.6 
		3.4,117.6 32.6,117.6 32.6,125.6 74.2,125.6 74.2,117.6 115.7,117.6 115.7,160.7 107.6,160.7 107.6,203.8 115.7,203.8 115.7,233.1 
		107.6,233.1 107.6,262.4 115.7,262.4 115.7,291.7 107.6,291.7 107.6,334.9 115.7,334.9 115.7,378 74.2,378 74.2,370 32.6,370 
		32.6,378 3.4,378 3.4,370 -38.2,370 -38.2,378 -79.7,378 -79.7,334.9 -71.6,334.9 -71.6,291.7 -79.7,291.7 -79.7,262.4 
		-71.6,262.4 -71.6,233.1 -79.7,233.1 -79.7,203.8 -71.6,203.8 -71.6,160.7 -79.7,160.7 	"/>
</g>
<g transform="translate(558, 18) ">
	<polygon fill="none" stroke="#FF0000" stroke-width="9.000000e-02" points="-146.3,117.6 -112.8,117.6 -112.8,125.6 -71.3,125.6 
		-71.3,117.6 -42,117.6 -42,125.6 -0.5,125.6 -0.5,117.6 32.9,117.6 32.9,160.7 41,160.7 41,203.8 32.9,203.8 32.9,233.1 41,233.1 
		41,262.4 32.9,262.4 32.9,291.7 41,291.7 41,334.9 32.9,334.9 32.9,378 -0.5,378 -0.5,370 -42,370 -42,378 -71.3,378 -71.3,370 
		-112.8,370 -112.8,378 -146.3,378 -146.3,334.9 -154.3,334.9 -154.3,291.7 -146.3,291.7 -146.3,262.4 -154.3,262.4 -154.3,233.1 
		-146.3,233.1 -146.3,203.8 -154.3,203.8 -154.3,160.7 -146.3,160.7 	"/>
</g>
<g transform="translate(558, 378) ">
	<polygon fill="none" stroke="#FF0000" stroke-width="9.000000e-02" points="-146.3,18 -112.8,18 -112.8,26 -71.3,26 -71.3,18 
		-42,18 -42,26 -0.5,26 -0.5,18 32.9,18 32.9,61.1 41,61.1 41,104.3 32.9,104.3 32.9,133.6 41,133.6 41,162.9 32.9,162.9 
		32.9,192.2 41,192.2 41,235.3 32.9,235.3 32.9,278.4 -0.5,278.4 -0.5,270.4 -42,270.4 -42,278.4 -71.3,278.4 -71.3,270.4 
		-112.8,270.4 -112.8,278.4 -146.3,278.4 -146.3,235.3 -154.3,235.3 -154.3,192.2 -146.3,192.2 -146.3,162.9 -154.3,162.9 
		-154.3,133.6 -146.3,133.6 -146.3,104.3 -154.3,104.3 -154.3,61.1 -146.3,61.1 	"/>
</g>
<g transform="translate(18, 378) ">
	<polygon fill="none" stroke="#FF0000" stroke-width="9.000000e-02" points="3.1,26 36.5,26 36.5,18 78,18 78,26 107.3,26 107.3,18 
		148.8,18 148.8,26 182.3,26 182.3,59.5 190.3,59.5 190.3,101 182.3,101 182.3,130.3 190.3,130.3 190.3,171.8 182.3,171.8 
		182.3,205.3 148.8,205.3 148.8,213.3 107.3,213.3 107.3,205.3 78,205.3 78,213.3 36.5,213.3 36.5,205.3 3.1,205.3 3.1,171.8 
		-5,171.8 -5,130.3 3.1,130.3 3.1,101 -5,101 -5,59.5 3.1,59.5 	"/>
</g>
<g transform="translate(288, 378) ">
	<polygon fill="none" stroke="#FF0000" stroke-width="9.000000e-02" points="-71.6,26 -38.2,26 -38.2,18 3.4,18 3.4,26 32.6,26 
		32.6,18 74.2,18 74.2,26 107.6,26 107.6,59.5 115.7,59.5 115.7,101 107.6,101 107.6,130.3 115.7,130.3 115.7,171.8 107.6,171.8 
		107.6,205.3 74.2,205.3 74.2,213.3 32.6,213.3 32.6,205.3 3.4,205.3 3.4,213.3 -38.2,213.3 -38.2,205.3 -71.6,205.3 -71.6,171.8 
		-79.7,171.8 -79.7,130.3 -71.6,130.3 -71.6,101 -79.7,101 -79.7,59.5 -71.6,59.5 	"/>
</g>
<text transform="matrix(1 0 0 1 46.6855 479.2822)" font-family="'CopperplateGothic-Bold'" font-size="10.8511">Soil Moisture Sensor </text>
<text transform="matrix(1 0 0 1 92.2602 492.3027)" font-family="'CopperplateGothic-Bold'" font-size="10.8511">Enabled</text>
<text transform="matrix(1 0 0 1 264.914 479.2822)" font-family="'CopperplateGothic-Bold'" font-size="10.8511">Powered by</text>
<text transform="matrix(1 0 0 1 270.5204 492.3027)" font-family="'CopperplateGothic-Bold'" font-size="10.8511">SparkFun</text>
</svg>
