<?xml version="1.0" encoding="utf-8"?>
<!-- Generator: Adobe Illustrator 18.0.0, SVG Export Plug-In . SVG Version: 6.00 Build 0)  -->
<!DOCTYPE svg PUBLIC "-//W3C//DTD SVG 1.1//EN" "http://www.w3.org/Graphics/SVG/1.1/DTD/svg11.dtd">
<svg version="1.1" id="Layer_1" xmlns="http://www.w3.org/2000/svg" xmlns:xlink="http://www.w3.org/1999/xlink" x="0px" y="0px"
	 viewBox="0 0 759 509" enable-background="new 0 0 759 509" xml:space="preserve">
<g transform="translate(22.5000185, 22.5000185) ">
	<polygon fill="none" stroke="#FF0000" stroke-width="9.000007e-02" points="-4.5,-4.5 52.6,-4.5 52.6,3.9 109.7,3.9 109.7,-4.5 
		143.7,-4.5 143.7,3.9 200.8,3.9 200.8,-4.5 257.8,-4.5 257.8,41.6 249.5,41.6 249.5,87.6 257.8,87.6 257.8,121.6 249.5,121.6 
		249.5,167.7 257.8,167.7 257.8,213.8 200.8,213.8 200.8,205.4 143.7,205.4 143.7,213.8 109.7,213.8 109.7,205.4 52.6,205.4 
		52.6,213.8 -4.5,213.8 -4.5,167.7 3.9,167.7 3.9,121.6 -4.5,121.6 -4.5,87.6 3.9,87.6 3.9,41.6 -4.5,41.6 	"/>
</g>
<g transform="translate(350.43335899999994, 22.5000185) ">
	<polygon fill="none" stroke="#FF0000" stroke-width="9.000007e-02" points="-70.1,-4.5 -13,-4.5 -13,3.9 44.1,3.9 44.1,-4.5 
		78.1,-4.5 78.1,3.9 135.2,3.9 135.2,-4.5 192.3,-4.5 192.3,41.6 183.9,41.6 183.9,87.6 192.3,87.6 192.3,121.6 183.9,121.6 
		183.9,167.7 192.3,167.7 192.3,213.8 135.2,213.8 135.2,205.4 78.1,205.4 78.1,213.8 44.1,213.8 44.1,205.4 -13,205.4 -13,213.8 
		-70.1,213.8 -70.1,167.7 -61.7,167.7 -61.7,121.6 -70.1,121.6 -70.1,87.6 -61.7,87.6 -61.7,41.6 -70.1,41.6 	"/>
</g>
<g transform="translate(678.3666995, 22.5000185) ">
	<polygon fill="none" stroke="#FF0000" stroke-width="9.000007e-02" points="-127.3,-4.5 -98,-4.5 -98,3.9 -60.3,3.9 -60.3,-4.5 
		-22.7,-4.5 -22.7,3.9 15,3.9 15,-4.5 52.7,-4.5 52.7,37.1 52.7,41.6 52.8,61.5 72.7,61.5 72.7,113.7 52.7,113.6 52.7,167.7 
		52.7,173.2 52.7,213.8 15,213.8 15,205.4 -22.7,205.4 -22.7,213.8 -60.3,213.8 -60.3,205.4 -98,205.4 -98,213.8 -127.3,213.8 
		-127.3,167.7 -135.7,167.7 -135.7,121.6 -127.3,121.6 -127.3,87.6 -135.7,87.6 -135.7,41.6 -127.3,41.6 	"/>
</g>
<g transform="translate(678.3666995, 295.3348885) ">
	<polygon fill="none" stroke="#FF0000" stroke-width="9.000007e-02" points="-127.3,-25.1 -98,-25.1 -98,-16.7 -60.3,-16.7 
		-60.3,-25.1 -22.7,-25.1 -22.7,-16.7 15,-16.7 15,-25.1 52.7,-25.1 52.7,13.9 52.7,21 52.7,44.3 7.3,44.3 7.3,124.3 52.7,124.3 
		52.7,147.1 52.7,153.4 52.7,193.2 15,193.2 15,184.8 -22.7,184.8 -22.7,193.2 -60.3,193.2 -60.3,184.8 -98,184.8 -98,193.2 
		-127.3,193.2 -127.3,147.1 -135.7,147.1 -135.7,101.1 -127.3,101.1 -127.3,67.1 -135.7,67.1 -135.7,21 -127.3,21 	"/>
</g>
<g transform="translate(22.5000185, 295.3348885) ">
	<polygon fill="none" stroke="#FF0000" stroke-width="9.000007e-02" points="3.9,-16.7 52.6,-16.7 52.6,-25.1 109.7,-25.1 
		109.7,-16.7 143.7,-16.7 143.7,-25.1 200.8,-25.1 200.8,-16.7 249.5,-16.7 249.5,12.6 257.8,12.6 257.8,50.3 249.5,50.3 249.5,88 
		257.8,88 257.8,125.6 249.5,125.6 249.5,163.3 206.6,163.3 200.8,163.3 156,163.3 156,183.1 105,183.1 105,163.3 52.6,163.3 
		46.8,163.3 4.1,163.3 3.9,125.6 -4.5,125.6 -4.5,88 3.9,88 3.9,50.3 -4.5,50.3 -4.5,12.6 3.9,12.6 	"/>
</g>
<g transform="translate(350.43335899999994, 295.3348885) ">
	<polygon fill="none" stroke="#FF0000" stroke-width="9.000007e-02" points="-61.7,-16.7 -13,-16.7 -13,-25.1 44.1,-25.1 
		44.1,-16.7 78.1,-16.7 78.1,-25.1 135.2,-25.1 135.2,-16.7 183.9,-16.7 183.9,12.6 192.3,12.6 192.3,50.3 183.9,50.3 183.9,88 
		192.3,88 192.3,125.6 183.9,125.6 183.9,163.3 138.7,163.3 135.2,163.3 90.1,163.3 90.1,183.1 39,183.1 39,163.3 -13,163.3 
		-16.8,163.3 -62.1,163.3 -61.7,125.6 -70.1,125.6 -70.1,88 -61.7,88 -61.7,50.3 -70.1,50.3 -70.1,12.6 -61.7,12.6 	"/>
</g>
<path fill="none" stroke="#FF0000" stroke-width="9.000007e-02" d="M132.2,444.5"/>
<path fill="none" stroke="#FF0000" stroke-width="9.000007e-02" d="M132.2,424.6"/>
<path fill="none" stroke="#FF0000" stroke-width="9.000007e-02" d="M178.5,444.5"/>
<path fill="none" stroke="#FF0000" stroke-width="9.000007e-02" d="M132.2,444.5"/>
<path fill="none" stroke="#FF0000" stroke-width="9.000007e-02" d="M445.3,444.5"/>
<path fill="none" stroke="#FF0000" stroke-width="9.000007e-02" d="M394.2,444.5"/>
<path fill="none" stroke="#FF0000" stroke-width="9.000007e-02" d="M751.1,110"/>
<path fill="none" stroke="#FF0000" stroke-width="9.000007e-02" d="M731.2,110"/>
<path fill="none" stroke="#FF0000" stroke-width="9.000007e-02" d="M731.1,328.2"/>
<path fill="none" stroke="#FF0000" stroke-width="9.000007e-02" d="M685.7,328.2"/>
<path fill="none" stroke="#FF0000" stroke-width="9.000007e-02" d="M731.1,373.7"/>
<path fill="none" stroke="#FF0000" stroke-width="9.000007e-02" d="M731.1,317.1"/>
<path fill="none" stroke="#FF0000" stroke-width="9.000007e-02" d="M741.1,362.4"/>
<path fill="none" stroke="#FF0000" stroke-width="9.000007e-02" d="M741.1,317.1"/>
<path fill="none" stroke="#FF0000" stroke-width="9.000007e-02" d="M741.1,84"/>
<path fill="none" stroke="#FF0000" stroke-width="9.000007e-02" d="M741.1,18"/>
<rect x="320.3" y="70.3" fill="none" stroke="#FF0000" stroke-width="7.200000e-02" width="62.7" height="118.7"/>
<rect x="461.7" y="72" fill="none" stroke="#FF0000" stroke-width="7.200000e-02" width="37.3" height="115.3"/>
</svg>
